<?xml version="1.0" standalone="no"?>
<!DOCTYPE svg PUBLIC "-//W3C//DTD SVG 20010904//EN"
 "http://www.w3.org/TR/2001/REC-SVG-20010904/DTD/svg10.dtd">
<svg version="1.0" xmlns="http://www.w3.org/2000/svg"
 width="16.000000pt" height="16.000000pt" viewBox="0 0 16.000000 16.000000"
 preserveAspectRatio="xMidYMid meet">
<metadata>
Created by potrace 1.11, written by Peter Selinger 2001-2013
</metadata>
<g transform="translate(0.000000,16.000000) scale(0.001778,-0.001778)"
fill="#000000" stroke="none">
<path d="M2577 6621 c-133 -37 -235 -136 -267 -261 -6 -25 -16 -60 -22 -78 -5
-19 -12 -66 -14 -105 -4 -76 -8 -97 -48 -242 -113 -412 -424 -868 -937 -1370
-301 -294 -517 -472 -963 -789 -149 -107 -278 -201 -285 -210 -15 -18 -8 -44
14 -52 8 -3 65 13 127 36 261 96 539 257 777 447 471 379 979 958 1353 1544
279 437 361 549 401 549 29 0 263 -239 358 -365 165 -220 260 -399 459 -864
270 -633 412 -812 729 -925 73 -26 94 -31 281 -61 52 -9 128 -22 169 -29 45
-8 83 -11 95 -6 21 9 21 9 0 9 -12 1 -27 8 -34 16 -7 8 -25 15 -40 15 -15 0
-33 6 -39 13 -6 8 -30 20 -53 27 -24 8 -50 19 -58 25 -8 6 -64 36 -125 66
-205 101 -330 220 -422 403 -19 39 -38 73 -42 76 -27 22 -128 270 -212 522
-134 401 -280 757 -356 871 -18 27 -33 54 -33 59 0 6 -13 29 -28 52 -15 22
-31 49 -35 58 -3 10 -34 59 -68 110 -193 290 -344 426 -504 458 -100 20 -108
20 -178 1z"/>
<path d="M4975 6088 c-33 -5 -67 -16 -76 -24 -8 -8 -21 -14 -27 -14 -24 0
-101 -122 -138 -218 -59 -155 -123 -274 -246 -462 -179 -271 -445 -763 -436
-806 6 -31 299 285 523 566 256 320 380 443 428 425 7 -3 36 -43 63 -88 107
-178 208 -297 371 -438 131 -113 232 -187 353 -261 102 -63 99 -62 119 -49 14
9 3 24 -59 90 -14 14 -37 44 -52 66 -15 22 -39 53 -53 69 -14 16 -25 33 -25
37 0 4 -6 14 -13 21 -28 27 -173 268 -237 393 -49 93 -86 187 -133 332 -36
111 -75 219 -86 240 -31 62 -90 109 -146 117 -26 4 -53 9 -59 11 -6 1 -38 -2
-71 -7z"/>
<path d="M6420 4810 c-8 -4 -31 -14 -50 -21 -58 -22 -115 -89 -162 -191 -24
-51 -103 -211 -176 -356 -123 -245 -143 -295 -117 -292 6 0 78 67 161 148 146
143 305 276 375 314 24 13 44 17 68 13 64 -12 235 -126 446 -298 61 -50 151
-117 200 -150 212 -140 591 -302 785 -337 36 -6 88 -18 115 -25 28 -8 64 -17
80 -20 17 -3 50 -10 75 -16 25 -6 65 -12 90 -14 25 -1 79 -8 120 -15 50 -8
126 -10 230 -6 231 10 271 13 283 25 8 8 5 11 -10 11 -11 0 -34 7 -49 15 -16
8 -44 15 -63 15 -111 0 -679 242 -1006 428 -135 77 -325 204 -431 289 -304
243 -580 418 -726 462 -21 6 -53 16 -71 21 -40 12 -146 12 -167 0z"/>
</g>
</svg>
